<svg width="512" height="512" viewBox="0 0 512 512" fill="none" xmlns="http://www.w3.org/2000/svg">
<g filter="url(#filter0_d_12_51)">
<rect x="50" y="50" width="412" height="412" rx="92" fill="white"/>
<rect x="50" y="50" width="412" height="412" rx="92" fill="url(#paint0_linear_12_51)"/>
</g>
<rect x="50" y="50" width="412" height="412" rx="92" fill="#7508DA"/>
<rect x="50" y="50" width="412" height="412" rx="92" fill="url(#paint1_linear_12_51)"/>
<path fill-rule="evenodd" clip-rule="evenodd" d="M303.938 426.975C308.205 425.831 310.738 421.445 309.595 417.177L275.978 291.719L326.21 341.951C329.334 345.075 334.4 345.075 337.524 341.951L341.951 337.524C345.075 334.4 345.075 329.334 341.951 326.21L293.458 277.717L417.177 310.868C421.445 312.011 425.831 309.479 426.975 305.211L428.595 299.164C429.739 294.896 427.206 290.509 422.938 289.366L298.026 255.895L364.662 238.04C368.93 236.897 371.462 232.51 370.319 228.242L368.698 222.195C367.555 217.927 363.168 215.395 358.9 216.538L293.162 234.153L383.926 143.389C387.05 140.264 387.05 135.199 383.926 132.075L379.499 127.648C376.375 124.524 371.31 124.524 368.185 127.648L276.09 219.743L294.185 152.213C295.328 147.945 292.796 143.558 288.528 142.415L282.48 140.795C278.213 139.651 273.826 142.184 272.682 146.451L254.868 212.935L221.552 88.5968C220.408 84.3291 216.022 81.7964 211.754 82.94L205.706 84.5603C201.439 85.7039 198.906 90.0906 200.05 94.3583L232.974 217.233L185.364 169.623C182.24 166.499 177.174 166.499 174.05 169.623L169.623 174.05C166.499 177.174 166.499 182.24 169.623 185.364L218.972 234.713L94.3583 201.323C90.0906 200.179 85.7039 202.712 84.5603 206.98L82.9399 213.027C81.7964 217.295 84.3291 221.681 88.5968 222.825L212.017 255.895L144.998 273.853C140.731 274.997 138.198 279.383 139.342 283.651L140.962 289.698C142.106 293.966 146.492 296.499 150.76 295.355L218.676 277.157L127.648 368.185C124.524 371.309 124.524 376.375 127.648 379.499L132.075 383.926C135.199 387.05 140.264 387.05 143.389 383.926L233.086 294.229L215.368 360.353C214.224 364.621 216.757 369.008 221.025 370.151L227.072 371.772C231.34 372.915 235.726 370.382 236.87 366.115L254.868 298.944L288.092 422.938C289.236 427.206 293.623 429.739 297.89 428.595L303.938 426.975Z" fill="#FFF5F0"/>
<defs>
<filter id="filter0_d_12_51" x="39" y="44.5" width="434" height="434" filterUnits="userSpaceOnUse" color-interpolation-filters="sRGB">
<feFlood flood-opacity="0" result="BackgroundImageFix"/>
<feColorMatrix in="SourceAlpha" type="matrix" values="0 0 0 0 0 0 0 0 0 0 0 0 0 0 0 0 0 0 127 0" result="hardAlpha"/>
<feOffset dy="5.5"/>
<feGaussianBlur stdDeviation="5.5"/>
<feColorMatrix type="matrix" values="0 0 0 0 0 0 0 0 0 0 0 0 0 0 0 0 0 0 0.28 0"/>
<feBlend mode="normal" in2="BackgroundImageFix" result="effect1_dropShadow_12_51"/>
<feBlend mode="normal" in="SourceGraphic" in2="effect1_dropShadow_12_51" result="shape"/>
</filter>
<linearGradient id="paint0_linear_12_51" x1="256" y1="50" x2="256" y2="462" gradientUnits="userSpaceOnUse">
<stop stop-opacity="0"/>
<stop offset="1" stop-opacity="0.2"/>
</linearGradient>
<linearGradient id="paint1_linear_12_51" x1="256" y1="50" x2="256" y2="462" gradientUnits="userSpaceOnUse">
<stop stop-opacity="0"/>
<stop offset="1" stop-opacity="0.2"/>
</linearGradient>
</defs>
</svg>
