<svg width="374" height="374" viewBox="0 0 374 374" fill="none" xmlns="http://www.w3.org/2000/svg">
    <path fill-rule="evenodd" clip-rule="evenodd"
        d="M239.439 371.589C243.707 370.445 246.239 366.059 245.096 361.791L208.691 225.927L263.29 280.525C266.414 283.65 271.479 283.65 274.604 280.525L280.26 274.869C283.385 271.744 283.385 266.679 280.26 263.555L227.537 210.831L361.526 246.734C365.794 247.877 370.18 245.344 371.324 241.077L373.394 233.349C374.538 229.082 372.005 224.695 367.738 223.551L232.462 187.304L304.908 167.892C309.175 166.749 311.708 162.362 310.564 158.094L308.494 150.367C307.35 146.099 302.964 143.567 298.696 144.71L227.217 163.863L325.515 65.565C328.639 62.4408 328.639 57.3755 325.515 54.2513L319.858 48.5944C316.734 45.4702 311.669 45.4702 308.545 48.5944L208.812 148.327L228.482 74.917C229.625 70.6492 227.093 66.2625 222.825 65.119L215.098 63.0484C210.83 61.9049 206.443 64.4376 205.3 68.7053L185.932 140.988L149.85 6.33033C148.707 2.0626 144.32 -0.47006 140.052 0.673474L132.325 2.74403C128.057 3.88756 125.525 8.27425 126.668 12.542L162.327 145.621L110.555 93.8493C107.431 90.7251 102.365 90.7251 99.2411 93.8493L93.5842 99.5061C90.46 102.63 90.46 107.696 93.5842 110.82L147.231 164.467L12.2769 128.306C8.00915 127.162 3.62246 129.695 2.47892 133.963L0.408369 141.69C-0.735166 145.958 1.79749 150.345 6.06522 151.488L139.733 187.304L66.8738 206.827C62.606 207.97 60.0734 212.357 61.2169 216.625L63.2875 224.352C64.431 228.62 68.8177 231.153 73.0854 230.009L146.912 210.227L48.3294 308.81C45.2052 311.934 45.2052 316.999 48.3294 320.123L53.9863 325.78C57.1105 328.904 62.1758 328.904 65.3 325.78L162.447 228.633L143.183 300.528C142.04 304.795 144.572 309.182 148.84 310.325L156.567 312.396C160.835 313.54 165.222 311.007 166.365 306.739L185.932 233.716L221.914 368.003C223.057 372.27 227.444 374.803 231.712 373.66L239.439 371.589Z"
        fill="#7508DA" />
</svg>